<svg width="15" height="15" viewBox="0 0 15 15" fill="none" xmlns="http://www.w3.org/2000/svg">
<path d="M0.74411 7.49995C0.74411 11.2209 3.76737 14.2558 7.49992 14.2558C11.2325 14.2558 14.2557 11.2209 14.2557 7.49995C14.2557 3.77902 11.2209 0.744141 7.49992 0.744141C3.77899 0.744141 0.74411 3.77902 0.74411 7.49995ZM13.3022 7.49995C13.3022 10.6976 10.6976 13.3023 7.49992 13.3023C4.30225 13.3023 1.6976 10.6976 1.6976 7.49995C1.6976 4.30228 4.30225 1.69763 7.49992 1.69763C10.6976 1.69763 13.3022 4.30228 13.3022 7.49995Z" fill="black"/>
<path d="M4.12781 5.94178C4.03479 6.0348 3.98827 6.15108 3.98827 6.27899C3.98827 6.39527 4.03479 6.52318 4.12781 6.6162L7.19758 9.68597C7.2906 9.77899 7.40688 9.8255 7.53479 9.8255C7.66269 9.8255 7.77897 9.77899 7.872 9.68597L10.9418 6.6162C11.1278 6.43015 11.1278 6.12783 10.9418 5.94178C10.7557 5.75573 10.4534 5.75573 10.2673 5.94178L7.53479 8.67434L4.80223 5.94178C4.61618 5.75573 4.31386 5.75573 4.12781 5.94178Z" fill="black"/>
</svg>
