<svg width="6" height="373" viewBox="0 0 6 373" fill="none" xmlns="http://www.w3.org/2000/svg">
<path d="M5.5 3L5.5 0.5L0.5 0.5L0.5 3L5.5 3ZM0.499984 370L0.499984 372.5L5.49998 372.5L5.49998 370L0.499984 370ZM0.5 3.0511L0.5 5.5511L5.5 5.5511L5.5 3.0511L0.5 3.0511ZM5.5 20.4251L5.5 17.9251L0.499999 17.9251L0.499999 20.4251L5.5 20.4251ZM0.499999 20.5273L0.499999 23.0273L5.5 23.0273L5.5 20.5273L0.499999 20.5273ZM5.5 37.9013L5.5 35.4013L0.499999 35.4013L0.499998 37.9013L5.5 37.9013ZM0.499998 38.0035L0.499998 40.5035L5.5 40.5035L5.5 38.0035L0.499998 38.0035ZM5.5 55.3775L5.5 52.8775L0.499998 52.8775L0.499998 55.3775L5.5 55.3775ZM0.499998 55.4797L0.499998 57.9797L5.5 57.9797L5.5 55.4797L0.499998 55.4797ZM5.5 72.8537L5.5 70.3537L0.499997 70.3537L0.499997 72.8537L5.5 72.8537ZM0.499997 72.9559L0.499997 75.4559L5.5 75.4559L5.5 72.9559L0.499997 72.9559ZM5.5 90.3299L5.5 87.8299L0.499996 87.8299L0.499996 90.3299L5.5 90.3299ZM0.499996 90.4321L0.499996 92.9321L5.5 92.9321L5.5 90.4321L0.499996 90.4321ZM5.5 107.806L5.5 105.306L0.499996 105.306L0.499995 107.806L5.5 107.806ZM0.499995 107.908L0.499995 110.408L5.5 110.408L5.5 107.908L0.499995 107.908ZM5.49999 125.282L5.49999 122.782L0.499995 122.782L0.499995 125.282L5.49999 125.282ZM0.499995 125.384L0.499995 127.884L5.49999 127.884L5.49999 125.384L0.499995 125.384ZM5.49999 142.758L5.49999 140.258L0.499994 140.258L0.499994 142.758L5.49999 142.758ZM0.499994 142.861L0.499994 145.361L5.49999 145.361L5.49999 142.861L0.499994 142.861ZM5.49999 160.235L5.49999 157.735L0.499993 157.735L0.499993 160.235L5.49999 160.235ZM0.499993 160.337L0.499993 162.837L5.49999 162.837L5.49999 160.337L0.499993 160.337ZM5.49999 177.711L5.49999 175.211L0.499993 175.211L0.499992 177.711L5.49999 177.711ZM0.499992 177.813L0.499992 180.313L5.49999 180.313L5.49999 177.813L0.499992 177.813ZM5.49999 195.187L5.49999 192.687L0.499992 192.687L0.499992 195.187L5.49999 195.187ZM0.499992 195.289L0.499992 197.789L5.49999 197.789L5.49999 195.289L0.499992 195.289ZM5.49999 212.663L5.49999 210.163L0.499991 210.163L0.499991 212.663L5.49999 212.663ZM0.499991 212.765L0.499991 215.265L5.49999 215.265L5.49999 212.765L0.499991 212.765ZM5.49999 230.139L5.49999 227.639L0.49999 227.639L0.49999 230.139L5.49999 230.139ZM0.49999 230.242L0.49999 232.742L5.49999 232.742L5.49999 230.242L0.49999 230.242ZM5.49999 247.616L5.49999 245.116L0.49999 245.116L0.499989 247.616L5.49999 247.616ZM0.499989 247.718L0.499989 250.218L5.49999 250.218L5.49999 247.718L0.499989 247.718ZM5.49999 265.092L5.49999 262.592L0.499989 262.592L0.499989 265.092L5.49999 265.092ZM0.499989 265.194L0.499989 267.694L5.49999 267.694L5.49999 265.194L0.499989 265.194ZM5.49999 282.568L5.49999 280.068L0.499988 280.068L0.499988 282.568L5.49999 282.568ZM0.499988 282.67L0.499988 285.17L5.49999 285.17L5.49999 282.67L0.499988 282.67ZM5.49999 300.044L5.49999 297.544L0.499987 297.544L0.499987 300.044L5.49999 300.044ZM0.499987 300.146L0.499987 302.646L5.49999 302.646L5.49999 300.146L0.499987 300.146ZM5.49999 317.52L5.49999 315.02L0.499987 315.02L0.499986 317.52L5.49999 317.52ZM0.499986 317.623L0.499986 320.123L5.49999 320.123L5.49999 317.623L0.499986 317.623ZM5.49999 334.997L5.49999 332.497L0.499986 332.497L0.499986 334.997L5.49999 334.997ZM0.499986 335.099L0.499986 337.599L5.49999 337.599L5.49999 335.099L0.499986 335.099ZM5.49998 352.473L5.49999 349.973L0.499985 349.973L0.499985 352.473L5.49998 352.473ZM0.499985 352.575L0.499985 355.075L5.49998 355.075L5.49998 352.575L0.499985 352.575ZM5.49998 369.949L5.49998 367.449L0.499984 367.449L0.499984 369.949L5.49998 369.949ZM0.5 3L0.5 3.0511L5.5 3.0511L5.5 3L0.5 3ZM0.499999 20.4251L0.499999 20.5273L5.5 20.5273L5.5 20.4251L0.499999 20.4251ZM0.499998 37.9013L0.499998 38.0035L5.5 38.0035L5.5 37.9013L0.499998 37.9013ZM0.499998 55.3775L0.499998 55.4797L5.5 55.4797L5.5 55.3775L0.499998 55.3775ZM0.499997 72.8537L0.499997 72.9559L5.5 72.9559L5.5 72.8537L0.499997 72.8537ZM0.499996 90.3299L0.499996 90.4321L5.5 90.4321L5.5 90.3299L0.499996 90.3299ZM0.499995 107.806L0.499995 107.908L5.5 107.908L5.5 107.806L0.499995 107.806ZM0.499995 125.282L0.499995 125.384L5.49999 125.384L5.49999 125.282L0.499995 125.282ZM0.499994 142.758L0.499994 142.861L5.49999 142.861L5.49999 142.758L0.499994 142.758ZM0.499993 160.235L0.499993 160.337L5.49999 160.337L5.49999 160.235L0.499993 160.235ZM0.499992 177.711L0.499992 177.813L5.49999 177.813L5.49999 177.711L0.499992 177.711ZM0.499992 195.187L0.499992 195.289L5.49999 195.289L5.49999 195.187L0.499992 195.187ZM0.499991 212.663L0.499991 212.765L5.49999 212.765L5.49999 212.663L0.499991 212.663ZM0.49999 230.139L0.49999 230.242L5.49999 230.242L5.49999 230.139L0.49999 230.139ZM0.499989 247.616L0.499989 247.718L5.49999 247.718L5.49999 247.616L0.499989 247.616ZM0.499989 265.092L0.499989 265.194L5.49999 265.194L5.49999 265.092L0.499989 265.092ZM0.499988 282.568L0.499988 282.67L5.49999 282.67L5.49999 282.568L0.499988 282.568ZM0.499987 300.044L0.499987 300.146L5.49999 300.146L5.49999 300.044L0.499987 300.044ZM0.499986 317.52L0.499986 317.623L5.49999 317.623L5.49999 317.52L0.499986 317.52ZM0.499986 334.997L0.499986 335.099L5.49999 335.099L5.49999 334.997L0.499986 334.997ZM0.499985 352.473L0.499985 352.575L5.49998 352.575L5.49998 352.473L0.499985 352.473ZM0.499984 369.949L0.499984 370L5.49998 370L5.49998 369.949L0.499984 369.949Z" fill="#929292"/>
</svg>
