<svg width="89" height="67" viewBox="0 0 89 67" fill="none" xmlns="http://www.w3.org/2000/svg">
<path d="M85.0214 48.804L79.6371 47.2656C79.4047 47.1992 79.2423 46.984 79.2423 46.7422V44.945C79.6804 44.6415 80.0983 44.3018 80.4889 43.9227C82.3818 42.0857 83.4243 39.6217 83.4243 36.9844V34.5044L83.9449 33.4633C84.5163 32.3204 84.8182 31.0409 84.8182 29.7632V23.0448C84.8182 22.3248 84.2345 21.741 83.5145 21.741H70.9688C66.4069 21.741 62.6953 25.4526 62.6953 30.0146V30.0923C62.6953 31.1547 62.9465 32.2187 63.4215 33.1689L64.0892 34.5042V36.6336C64.0892 40.0083 65.7522 43.0362 68.2712 44.8583L68.2715 46.7419C68.2715 47.0323 68.2715 47.1526 67.195 47.4603L64.5678 48.2109L56.9678 45.4474C56.9951 45.0888 56.8741 44.7241 56.6125 44.4493L54.184 41.8978V37.6147C54.4407 37.4031 54.6938 37.1858 54.9391 36.956C58.0028 34.0844 59.7598 30.03 59.7598 25.8326V22.412C60.685 20.3989 61.1538 18.2687 61.1538 16.0748V2.1355C61.1538 1.4155 60.5701 0.831787 59.8501 0.831787H40.3346C33.4666 0.831787 27.8792 6.41932 27.8792 13.2871V16.0751C27.8792 18.269 28.3481 20.3993 29.2732 22.4124V25.3555C29.2732 30.2289 31.4401 34.6195 34.8491 37.514V41.898L32.4205 44.4494C32.1589 44.7243 32.0379 45.0889 32.0652 45.4476L24.0439 48.3642C23.4626 48.5756 22.9225 48.8619 22.4322 49.2087L21.1726 48.5789C24.9221 46.9468 26.1099 44.6514 26.1669 44.5374C26.3504 44.1704 26.3504 43.7383 26.1669 43.3713C25.227 41.4916 25.1131 38.0461 25.0217 35.2777C24.9913 34.3561 24.9624 33.4854 24.9073 32.7101C24.4628 26.4568 19.709 21.741 13.8492 21.741C7.98949 21.741 3.23546 26.4567 2.79116 32.7101C2.73605 33.4856 2.7072 34.3563 2.67678 35.2781C2.58535 38.0463 2.47131 41.4914 1.5316 43.3712C1.34804 43.7381 1.34804 44.1703 1.5316 44.5372C1.58862 44.6512 2.77395 46.942 6.5309 48.5759L3.03226 50.3252C1.16187 51.2611 0 53.141 0 55.232V64.8636C0 65.5836 0.583715 66.1673 1.30371 66.1673C2.02371 66.1673 2.60742 65.5836 2.60742 64.8636V55.232C2.60742 54.1348 3.21704 53.1483 4.1983 52.6576L8.55495 50.4794L10.0704 51.9195C11.13 52.9265 12.4894 53.4297 13.8492 53.4297C15.2087 53.4297 16.5688 52.9262 17.6281 51.9195L19.1433 50.4795L20.5639 51.1898C19.895 52.26 19.5153 53.5151 19.5153 54.8298V64.864C19.5153 65.584 20.0991 66.1677 20.819 66.1677C21.539 66.1677 22.1228 65.584 22.1228 64.864V54.8298C22.1228 53.04 23.2528 51.4265 24.9349 50.8148L33.392 47.7396L36.9126 53.0207C37.3626 53.6959 38.0838 54.1289 38.8913 54.2088C38.9813 54.2177 39.0708 54.222 39.1602 54.222C39.8725 54.222 40.5548 53.9417 41.0648 53.4318L43.2126 51.284V64.8642C43.2126 65.5841 43.7963 66.1679 44.5163 66.1679C45.2363 66.1679 45.82 65.5841 45.82 64.8642V51.284L47.9679 53.4318C48.4777 53.9418 49.16 54.2222 49.8725 54.2222C49.9617 54.2222 50.0514 54.2179 50.1412 54.209C50.9488 54.1291 51.6701 53.696 52.1201 53.0209L55.6408 47.74L64.0977 50.8152C65.7797 51.4269 66.9099 53.0404 66.9099 54.8301V64.8643C66.9099 65.5843 67.4936 66.168 68.2136 66.168C68.9336 66.168 69.5173 65.5843 69.5173 64.8643V54.8301C69.5173 53.0174 68.7972 51.3174 67.5891 50.0601L67.9112 49.9681C68.2361 49.8753 68.6793 49.7482 69.1243 49.5301L72.453 52.8587V64.8643C72.453 65.5843 73.0367 66.168 73.7567 66.168C74.4767 66.168 75.0604 65.5843 75.0604 64.8643V52.8587L78.3659 49.5532C78.5416 49.6425 78.7262 49.718 78.9206 49.7734L84.3051 51.3118C85.534 51.6629 86.3926 52.801 86.3926 54.0793V64.8643C86.3926 65.5843 86.9763 66.168 87.6963 66.168C88.4163 66.168 89 65.5843 89 64.8643V54.0793C89 51.6426 87.3639 49.4734 85.0214 48.804ZM8.36374 46.5013C5.92511 45.6238 4.70188 44.4539 4.1797 43.8151C4.5357 42.8845 4.76654 41.8185 4.92281 40.6934C5.64177 42.4172 6.84587 43.8888 8.36374 44.9388V46.5013ZM15.8323 50.0297C14.7203 51.0862 12.9784 51.086 11.8667 50.0295L10.6543 48.8774C10.8589 48.4941 10.9713 48.0595 10.9713 47.6042V46.2147C11.8808 46.4989 12.8476 46.6522 13.8496 46.6522C14.8503 46.6522 15.8166 46.4982 16.7277 46.2155L16.7275 47.6041C16.7275 48.0595 16.8398 48.4942 17.0445 48.8777L15.8323 50.0297ZM13.8499 44.0448C9.95688 44.0448 6.7899 40.8776 6.7899 36.9847C6.7899 36.2647 6.20619 35.681 5.48619 35.681C5.41318 35.681 5.34191 35.6885 5.27221 35.7001C5.27603 35.588 5.27968 35.4757 5.28351 35.3647C5.31254 34.4682 5.34052 33.6215 5.39215 32.8952C5.55868 30.5527 6.49474 28.3941 8.0279 26.8168C9.5748 25.2253 11.6423 24.3488 13.8496 24.3488C16.0569 24.3488 18.1242 25.2253 19.6713 26.8168C21.2044 28.3941 22.1405 30.5527 22.307 32.8952C22.3585 33.6213 22.3866 34.4679 22.4162 35.3641C22.4188 35.4411 22.4214 35.5192 22.424 35.5967C21.0056 33.4113 18.815 31.8008 15.9845 30.8914C13.3696 30.0513 11.1207 30.1032 11.0257 30.1057C10.6843 30.1152 10.3603 30.2581 10.1234 30.5039L7.77116 32.9434C7.2714 33.4618 7.28635 34.2871 7.80471 34.7868C8.32306 35.2866 9.1484 35.2715 9.64816 34.7533L11.6055 32.7235C13.2911 32.8059 18.714 33.4366 20.823 38.0807C20.2923 41.503 17.3508 44.0448 13.8499 44.0448ZM19.3347 46.5056L19.3349 44.9507C20.8516 43.9066 22.0574 42.4377 22.7769 40.7008C22.9331 41.8234 23.1638 42.8869 23.5191 43.8155C22.9999 44.4482 21.7709 45.6285 19.3347 46.5056ZM31.8806 25.3553V22.1207C31.8806 21.9244 31.8363 21.7306 31.7509 21.5538C30.912 19.8166 30.4867 17.9733 30.4867 16.0751V13.2873C30.4867 7.85705 34.9045 3.43938 40.3346 3.43938H58.5464V16.0753C58.5464 17.9735 58.121 19.8168 57.2821 21.554C57.1968 21.7308 57.1524 21.9246 57.1524 22.1209V25.833C57.1524 29.3636 55.7331 32.6383 53.1559 35.054C52.8342 35.3554 52.5003 35.6381 52.155 35.9014C52.1474 35.9066 52.1401 35.9124 52.1326 35.9178C49.7183 37.7508 46.7612 38.6417 43.6729 38.4416C37.0603 38.0134 31.8806 32.2653 31.8806 25.3553ZM39.2212 51.5879C39.2122 51.5969 39.1911 51.6183 39.1485 51.6138C39.1061 51.6096 39.0894 51.5847 39.0823 51.574L35.0278 45.4921L36.3325 44.1211L42.4834 48.3254L39.2212 51.5879ZM44.5165 46.5568L37.4565 41.7309V39.2973C39.2832 40.2849 41.3287 40.9025 43.5041 41.0433C43.8478 41.0655 44.1894 41.0765 44.5299 41.0765C47.0228 41.0765 49.4219 40.4806 51.5765 39.3495V41.7309L44.5165 46.5568ZM49.9507 51.5743C49.9436 51.5851 49.9269 51.6099 49.8845 51.6141C49.8419 51.6195 49.8211 51.5971 49.8118 51.5882L46.5496 48.326L52.7005 44.1214L54.0054 45.4924L49.9507 51.5743ZM73.7567 50.4743L70.7981 47.5159C70.8497 47.2814 70.8789 47.0247 70.8788 46.7415L70.8786 46.1914C71.6996 46.4608 72.5649 46.6207 73.4603 46.6475C73.5608 46.6506 73.6604 46.652 73.7605 46.652C74.7499 46.652 75.7157 46.5025 76.6349 46.2173V46.7422C76.6349 47.0023 76.6676 47.2571 76.7291 47.502L73.7567 50.4743ZM78.673 42.0516C77.2913 43.3926 75.4659 44.1007 73.5387 44.0413C69.7659 43.9281 66.6966 40.605 66.6966 36.6339V34.1967C66.6966 33.9942 66.6495 33.7946 66.559 33.6137L65.7536 32.003C65.4586 31.4128 65.3027 30.7523 65.3027 30.0924V30.0147C65.3027 26.8904 67.8446 24.3486 70.9688 24.3486H82.2108V29.7634C82.2108 30.6384 82.0039 31.5147 81.6127 32.2975L80.9545 33.6137C80.864 33.7948 80.8169 33.9942 80.8169 34.1967V36.9846C80.8169 38.9106 80.0555 40.71 78.673 42.0516Z" fill="#EF8B54"/>
</svg>
